# xmcd CD database file
#
# Track frame offsets:
#	150
#	27733
#	50630
#	82548
#	114988
#	148637
#	178522
#	213235
#	237277
#	264253
#
# Disc length: 3860 seconds
#
# Revision: 1
# Processed by: cddbd v1.5.2PL0 Copyright (c) Steve Scherf et al.
# Submitted via: CDex 1.70beta2
#
DISCID=7f0f120a
DTITLE=Cecilia Wennerström Quartet - Stuck Zipper feat. Ellekari Larsson
DYEAR=2001
DGENRE=Jazz
TTITLE0=Corridor with side-passages
TTITLE1=Time flies
TTITLE2=My umbrella
TTITLE3=Stuck zipper
TTITLE4=If you
TTITLE5=Juan-les-Pins
TTITLE6=Pattern for Pricilla
TTITLE7=Saga of the wood of whispers
TTITLE8=Lisa
TTITLE9=Love me or leave me
EXTD=YEAR: 2001
EXTT0=
EXTT1=
EXTT2=
EXTT3=
EXTT4=
EXTT5=
EXTT6=
EXTT7=
EXTT8=
EXTT9=
PLAYORDER=
